<svg xmlns="http://www.w3.org/2000/svg" viewBox="0 0 900 520">
<defs>
  <linearGradient id="sky" x1="0" y1="0" x2="1" y2="1">
    <stop offset="0" stop-color="#071421"/>
    <stop offset=".55" stop-color="#10283a"/>
    <stop offset="1" stop-color="#122033"/>
  </linearGradient>
  <radialGradient id="sun" cx=".57" cy=".54" r=".4">
    <stop offset="0" stop-color="#f3b862" stop-opacity=".65"/>
    <stop offset=".35" stop-color="#5f8da5" stop-opacity=".28"/>
    <stop offset="1" stop-color="#06111d" stop-opacity="0"/>
  </radialGradient>
  <linearGradient id="water" x1="0" y1="0" x2="0" y2="1">
    <stop offset="0" stop-color="#0c2536"/>
    <stop offset="1" stop-color="#05111c"/>
  </linearGradient>
  <filter id="blur"><feGaussianBlur stdDeviation="9"/></filter>
</defs>
<rect width="900" height="520" fill="url(#sky)"/>
<rect width="900" height="520" fill="url(#sun)"/>
<path d="M0 340 L95 270 L170 326 L260 232 L355 336 L420 278 L530 356 L900 325 L900 520 L0 520 Z" fill="#081725"/>
<path d="M0 376 L120 320 L220 364 L310 310 L412 372 L520 326 L650 374 L900 346 L900 520 L0 520 Z" fill="#06131f"/>
<rect y="377" width="900" height="143" fill="url(#water)"/>
<g opacity=".45" stroke="#69d9d0">
  <path d="M420 398 C560 381 708 390 900 376" fill="none"/>
  <path d="M370 419 C580 401 760 412 900 398" fill="none"/>
  <path d="M470 446 C610 428 800 437 900 422" fill="none"/>
</g>
<!-- Torii -->
<g transform="translate(175 240)" fill="#06121d">
  <rect x="18" y="30" width="18" height="145" rx="3"/>
  <rect x="132" y="30" width="18" height="145" rx="3"/>
  <rect x="0" y="8" width="168" height="18" rx="6"/>
  <rect x="14" y="30" width="140" height="12" rx="4"/>
</g>
<!-- City -->
<g fill="#071722">
  <rect x="630" y="230" width="23" height="160"/>
  <rect x="662" y="282" width="38" height="108"/>
  <rect x="714" y="248" width="34" height="142"/>
  <rect x="759" y="196" width="24" height="194"/>
  <rect x="797" y="258" width="44" height="132"/>
  <rect x="850" y="214" width="20" height="176"/>
</g>
<g stroke="#d9ae66" stroke-width="2" opacity=".75">
  <path d="M642 230 V192"/>
  <path d="M770 196 V142"/>
  <path d="M860 214 V173"/>
</g>
<g fill="#eabf70" opacity=".65">
  <circle cx="639" cy="275" r="2"/><circle cx="639" cy="298" r="2"/><circle cx="639" cy="322" r="2"/>
  <circle cx="728" cy="281" r="2"/><circle cx="728" cy="305" r="2"/><circle cx="728" cy="332" r="2"/>
  <circle cx="770" cy="240" r="2"/><circle cx="770" cy="268" r="2"/><circle cx="770" cy="298" r="2"/>
</g>
<g opacity=".14" fill="none" stroke="#75e4da">
  <circle cx="470" cy="210" r="80"/><circle cx="470" cy="210" r="140"/><circle cx="470" cy="210" r="205"/>
</g>
</svg>